HIERARCHY
ROOT Hips
{
 OFFSET 0.000000 0.000000 0.000000
 CHANNELS 6 Xposition Yposition Zposition Yrotation Xrotation Zrotation
 JOINT Chest
 {
  OFFSET 0.000000 9.585900 0.002600
  CHANNELS 3 Yrotation Xrotation Zrotation
  JOINT Chest2
  {
   OFFSET 0.000000 9.601200 -0.005300
   CHANNELS 3 Yrotation Xrotation Zrotation
   JOINT Chest3
   {
    OFFSET 0.000000 9.561800 0.000000
    CHANNELS 3 Yrotation Xrotation Zrotation
    JOINT Chest4
    {
     OFFSET 0.000000 9.552100 0.000000
     CHANNELS 3 Yrotation Xrotation Zrotation
     JOINT Neck
     {
      OFFSET 0.000000 14.453000 0.000000
      CHANNELS 3 Yrotation Xrotation Zrotation
      JOINT Head
      {
       OFFSET 0.000000 8.936500 -0.011300
       CHANNELS 3 Yrotation Xrotation Zrotation
       End Site
       {
        OFFSET 0.000000 17.073600 -0.006000
       }
      }
     }
     JOINT RightCollar
     {
      OFFSET -2.921100 9.558500 0.000000
      CHANNELS 3 Yrotation Xrotation Zrotation
      JOINT RightShoulder
      {
       OFFSET -13.519700 0.000000 0.000000
       CHANNELS 3 Yrotation Xrotation Zrotation
       JOINT RightElbow
       {
        OFFSET 0.000000 -29.696600 0.000000
        CHANNELS 3 Yrotation Xrotation Zrotation
        JOINT RightWrist
        {
         OFFSET 0.000000 -24.004700 0.000000
         CHANNELS 3 Yrotation Xrotation Zrotation
         End Site
         {
          OFFSET 0.000000 -17.728500 0.000000
         }
        }
       }
      }
     }
     JOINT LeftCollar
     {
      OFFSET 2.921100 9.558500 0.000000
      CHANNELS 3 Yrotation Xrotation Zrotation
      JOINT LeftShoulder
      {
       OFFSET 13.519700 0.000000 0.000000
       CHANNELS 3 Yrotation Xrotation Zrotation
       JOINT LeftElbow
       {
        OFFSET 0.000000 -29.696600 0.000000
        CHANNELS 3 Yrotation Xrotation Zrotation
        JOINT LeftWrist
        {
         OFFSET 0.000000 -24.004700 0.000000
         CHANNELS 3 Yrotation Xrotation Zrotation
         End Site
         {
          OFFSET 0.000000 -17.728500 0.000000
         }
        }
       }
      }
     }
    }
   }
  }
 }
 JOINT RightHip
 {
  OFFSET -7.771700 -0.012900 -0.001300
  CHANNELS 3 Yrotation Xrotation Zrotation
  JOINT RightKnee
  {
   OFFSET 0.000000 -40.869800 0.001200
   CHANNELS 3 Yrotation Xrotation Zrotation
   JOINT RightAnkle
   {
    OFFSET 0.000000 -39.717900 0.002100
    CHANNELS 3 Yrotation Xrotation Zrotation
    JOINT RightToe
    {
     OFFSET 0.000000 -4.965400 11.033500
     CHANNELS 3 Yrotation Xrotation Zrotation
     End Site
     {
      OFFSET 0.000000 -1.423100 5.872300
     }
    }
   }
  }
 }
 JOINT LeftHip
 {
  OFFSET 7.771700 -0.012900 -0.001300
  CHANNELS 3 Yrotation Xrotation Zrotation
  JOINT LeftKnee
  {
   OFFSET 0.000000 -40.869800 0.001200
   CHANNELS 3 Yrotation Xrotation Zrotation
   JOINT LeftAnkle
   {
    OFFSET 0.000000 -39.717900 0.002100
    CHANNELS 3 Yrotation Xrotation Zrotation
    JOINT LeftToe
    {
     OFFSET 0.000000 -4.965400 11.033500
     CHANNELS 3 Yrotation Xrotation Zrotation
     End Site
     {
      OFFSET 0.000000 -1.423100 5.872300
     }
    }
   }
  }
 }
}
MOTION
Frames: 6
Frame Time: 0.008333
-41.079888 44.017859 33.523504 179.442675 -21.649428 -2.143564 -0.813109 16.525110 2.442860 -0.110906 1.693352 0.310755 -0.192818 2.820292 0.507780 -0.682957 14.533874 2.590034 -3.307320 16.227092 -1.772913 -3.145351 -8.663705 -1.141753 9.097334 0.493795 -2.587209 -10.330372 -9.847293 -3.805043 176.733660 -83.743466 -164.395191 -2.568301 5.180822 -31.529283 -15.825509 -0.886553 -5.253227 14.061118 -7.821150 0.227171 -154.534766 -76.428661 143.840129 13.738184 11.472678 34.767334 -6.703480 -69.908631 12.510912 -152.324713 69.897329 -151.448698 -13.557237 -23.806332 8.948740 0.196089 -0.750620 0.163265 4.358461 -59.794233 -6.294787 176.361889 62.955550 176.745250 -2.885358 -35.767033 4.996283 0.012046 0.097444 0.041857
-41.085579 44.020436 33.520871 179.471939 -21.662597 -2.138550 -0.818618 16.545313 2.448692 -0.110450 1.695146 0.312049 -0.208246 2.818524 0.501376 -0.665073 14.547414 2.609936 -3.286244 16.221678 -1.758433 -3.150315 -8.677864 -1.142103 9.104993 0.485078 -2.602708 -10.345696 -9.835462 -3.788659 176.808347 -83.847868 -164.504161 -2.572032 5.171031 -31.564370 -15.841622 -0.913234 -5.250145 14.044674 -7.856107 0.227569 -151.673597 -76.272153 141.254417 13.476399 11.415448 34.647758 -6.641692 -69.899974 12.433938 -152.333605 69.892481 -151.450264 -13.585782 -23.764905 8.939628 0.249344 -0.789675 0.176801 4.374809 -59.778044 -6.322625 176.360085 62.961346 176.735353 -2.911662 -35.761043 5.016646 0.012917 0.094933 0.040698
-41.089395 44.021366 33.521132 179.481086 -21.657698 -2.131872 -0.802445 16.544012 2.460996 -0.110249 1.696936 0.313239 -0.178935 2.832628 0.521095 -0.687905 14.543261 2.605663 -3.308838 16.208896 -1.761346 -3.083969 -8.665252 -1.090636 9.106482 0.476827 -2.614150 -10.362755 -9.820378 -3.775531 176.933026 -83.958948 -164.658760 -2.576527 5.162355 -31.594175 -15.862272 -0.935717 -5.220974 14.028984 -7.864066 0.194994 -148.826226 -76.058255 138.688868 13.217065 11.329324 34.552826 -6.588733 -69.909585 12.389691 -152.359747 69.891865 -151.479456 -13.598876 -23.764982 8.947590 0.233435 -0.795451 0.164743 4.409304 -59.781941 -6.348536 176.360368 62.965499 176.736757 -2.938784 -35.758481 5.023296 0.012703 0.093859 0.043626
-41.094603 44.022176 33.520060 179.504801 -21.660171 -2.117801 -0.804903 16.548019 2.459830 -0.110087 1.698470 0.314352 -0.191521 2.832723 0.514067 -0.671189 14.556351 2.620183 -3.290174 16.208968 -1.735587 -3.090662 -8.667710 -1.079550 9.116364 0.465285 -2.622136 -10.330053 -9.762326 -3.726071 176.626135 -84.038185 -164.425629 -2.582173 5.155061 -31.613098 -15.883115 -0.960256 -5.209662 14.019873 -7.899059 0.188663 -145.923726 -75.821930 136.082075 12.951399 11.219218 34.487749 -6.499896 -69.916319 12.302599 -152.368117 69.882315 -151.478027 -13.670444 -23.761050 8.966087 0.255946 -0.795854 0.173644 4.452761 -59.777158 -6.406119 176.359701 62.971421 176.737347 -2.952695 -35.752083 5.032025 0.012196 0.094785 0.051199
-41.098401 44.022272 33.519481 179.517025 -21.659292 -2.104612 -0.802967 16.547415 2.458551 -0.103969 1.700210 0.320063 -0.203107 2.832697 0.506113 -0.650334 14.564443 2.638704 -3.276334 16.215164 -1.711166 -3.097536 -8.665644 -1.067908 9.152215 0.460224 -2.623612 -10.358755 -9.736246 -3.712581 176.705709 -84.156459 -164.540704 -2.588078 5.149955 -31.624738 -15.913237 -0.979658 -5.213194 14.012409 -7.933935 0.185913 -143.003343 -75.527344 133.470307 12.665802 11.098641 34.452014 -6.451663 -69.920544 12.245976 -152.380844 69.878345 -151.496490 -13.669028 -23.765645 8.976304 0.296603 -0.806729 0.153860 4.487078 -59.777857 -6.433530 176.356147 62.974531 176.724407 -2.983088 -35.745990 5.055121 0.012298 0.092144 0.048278
-41.101494 44.021839 33.519041 179.541262 -21.656066 -2.097423 -0.824311 16.544836 2.447530 -0.086089 1.702569 0.334169 -0.203079 2.833585 0.506335 -0.648905 14.567321 2.645164 -3.288524 16.214045 -1.709694 -3.076427 -8.648671 -1.037194 9.141691 0.454139 -2.636427 -10.334835 -9.712560 -3.695442 176.949906 -84.285998 -164.815824 -2.597196 5.151001 -31.633342 -15.937622 -0.995422 -5.215363 14.000507 -7.952951 0.179300 -140.161554 -75.167560 130.949993 12.350710 10.983287 34.438324 -6.423050 -69.925110 12.192936 -152.401799 69.871620 -151.523564 -13.636966 -23.778009 8.966265 0.278206 -0.809628 0.157315 4.496697 -59.783515 -6.457835 176.367783 62.977342 176.726144 -2.995895 -35.739398 5.070805 0.016820 0.089252 0.035042
